<svg width="20" height="16" fill="none" xmlns="http://www.w3.org/2000/svg"><path d="M19.662 1.892c-.737.32-1.5.541-2.31.64a3.932 3.932 0 001.77-2.237 8.489 8.489 0 01-2.557.983 4.033 4.033 0 00-6.98 2.753c0 .32.025.614.099.91C6.34 4.792 3.392 3.17 1.4.736c-1.426 2.556.172 4.67 1.229 5.383-.64 0-1.278-.197-1.819-.492 0 1.991 1.401 3.638 3.22 4.006-.394.123-1.278.197-1.819.074.516 1.598 2.015 2.777 3.76 2.802-1.375 1.082-3.39 1.943-5.971 1.672A11.37 11.37 0 006.194 16c7.422 0 11.453-6.144 11.453-11.453 0-.172 0-.344-.025-.516.836-.615 1.524-1.327 2.04-2.139z" fill="#fff"/></svg>