<svg width="22" height="17" fill="none" xmlns="http://www.w3.org/2000/svg"><path d="M19.905 4.338h-2.228c.997-.56 1.524-.717 1.524-1.902C19.201.99 19 0 17.802 0H9.757L.834 3.556a.19.19 0 00-.124.176c0 .13.104.235.234.235.489.215.802.781.802 1.7 0 1.485-.502 1.856-.847 2a.189.189 0 00-.189.188v.215a.247.247 0 00.247.248h2.11c.698.325.815 1.205.776 1.98L.13 12.213a.242.242 0 00-.13.215.22.22 0 00.221.221h.02c.489.215.801.775.801 1.694 0 1.485-.501 1.856-.847 2a.189.189 0 00-.188.188v.176c0 .163.13.293.293.293h8.226c.664 0 1.12-.085 1.433-.228 1.843-.847 7.074-3.778 7.458-4.006.45-.267 1.081-.45 1.081-1.648 0-.638-.046-1.185-.195-1.602a93.664 93.664 0 001.928-1.081c.45-.267 1.08-.45 1.08-1.648 0-1.446-.201-2.436-1.4-2.436l-.006-.013zM2 7.666c.456-.67.527-1.615.527-2 0-.794-.234-1.335-.482-1.7H9.08c1.205 0 1.53.73 1.53 1.727 0 1.205-.319 1.967-1.556 1.967H2v.006zm6.344 8.676H1.29c.456-.67.527-1.615.527-2 0-.794-.234-1.328-.482-1.693H8.56c1.035.078 1.341.788 1.341 1.72 0 1.205-.319 1.967-1.556 1.967v.006zm2.814-4.338H4.103c.456-.67.528-1.615.528-2 0-.788-.234-1.322-.475-1.686h7.028c1.205 0 1.53.723 1.53 1.72 0 1.204-.319 1.966-1.556 1.966z" fill="#ff4647"/></svg>